<mxfile host="app.diagrams.net" modified="2023-08-22T02:41:39.397Z" agent="Mozilla/5.0 (Windows NT 10.0; Win64; x64) AppleWebKit/537.36 (KHTML, like Gecko) Chrome/116.0.0.0 Safari/537.36" etag="3GzDAqRcEXzwVudR2U_W" version="21.6.8" type="github">
  <diagram name="Page-1" id="oa9Hy5WR9T8vtJqIB_qF">
    <mxGraphModel dx="880" dy="478" grid="1" gridSize="10" guides="1" tooltips="1" connect="1" arrows="1" fold="1" page="1" pageScale="1" pageWidth="850" pageHeight="1100" math="0" shadow="0">
      <root>
        <mxCell id="0" />
        <mxCell id="1" parent="0" />
        <mxCell id="slcfN0gVcf-C9hrQRJ7O-11" value="PLAYER 2(computer)" style="shape=umlActor;verticalLabelPosition=bottom;verticalAlign=top;html=1;outlineConnect=0;" vertex="1" parent="1">
          <mxGeometry x="650" y="150" width="30" height="60" as="geometry" />
        </mxCell>
        <mxCell id="slcfN0gVcf-C9hrQRJ7O-1" value="" style="rounded=0;whiteSpace=wrap;html=1;" vertex="1" parent="1">
          <mxGeometry x="410" y="60" width="160" height="250" as="geometry" />
        </mxCell>
        <mxCell id="slcfN0gVcf-C9hrQRJ7O-24" value="Game Tebak&lt;br&gt;Angka" style="text;html=1;strokeColor=none;fillColor=none;align=center;verticalAlign=middle;whiteSpace=wrap;rounded=0;" vertex="1" parent="1">
          <mxGeometry x="450" y="60" width="80" height="30" as="geometry" />
        </mxCell>
        <mxCell id="slcfN0gVcf-C9hrQRJ7O-25" value="" style="ellipse;whiteSpace=wrap;html=1;" vertex="1" parent="1">
          <mxGeometry x="432.5" y="110" width="115" height="50" as="geometry" />
        </mxCell>
        <mxCell id="slcfN0gVcf-C9hrQRJ7O-26" value="Random Angka" style="text;html=1;strokeColor=none;fillColor=none;align=center;verticalAlign=middle;whiteSpace=wrap;rounded=0;" vertex="1" parent="1">
          <mxGeometry x="445" y="120" width="90" height="30" as="geometry" />
        </mxCell>
        <mxCell id="slcfN0gVcf-C9hrQRJ7O-27" value="" style="ellipse;whiteSpace=wrap;html=1;" vertex="1" parent="1">
          <mxGeometry x="432.5" y="220" width="120" height="50" as="geometry" />
        </mxCell>
        <mxCell id="slcfN0gVcf-C9hrQRJ7O-28" value="Tebak Angka" style="text;html=1;strokeColor=none;fillColor=none;align=center;verticalAlign=middle;whiteSpace=wrap;rounded=0;" vertex="1" parent="1">
          <mxGeometry x="445" y="230" width="100" height="30" as="geometry" />
        </mxCell>
        <mxCell id="slcfN0gVcf-C9hrQRJ7O-29" value="" style="endArrow=none;html=1;rounded=0;entryX=0;entryY=1;entryDx=0;entryDy=0;" edge="1" parent="1" target="slcfN0gVcf-C9hrQRJ7O-26">
          <mxGeometry width="50" height="50" relative="1" as="geometry">
            <mxPoint x="340" y="220" as="sourcePoint" />
            <mxPoint x="410" y="160" as="targetPoint" />
            <Array as="points">
              <mxPoint x="400" y="170" />
            </Array>
          </mxGeometry>
        </mxCell>
        <mxCell id="slcfN0gVcf-C9hrQRJ7O-31" value="PLAYER 1 (Computer)" style="shape=umlActor;verticalLabelPosition=bottom;verticalAlign=top;html=1;outlineConnect=0;" vertex="1" parent="1">
          <mxGeometry x="310" y="170" width="30" height="60" as="geometry" />
        </mxCell>
        <mxCell id="slcfN0gVcf-C9hrQRJ7O-33" value="" style="endArrow=none;html=1;rounded=0;" edge="1" parent="1" target="slcfN0gVcf-C9hrQRJ7O-11">
          <mxGeometry width="50" height="50" relative="1" as="geometry">
            <mxPoint x="552.5" y="250" as="sourcePoint" />
            <mxPoint x="603" y="190" as="targetPoint" />
            <Array as="points">
              <mxPoint x="580" y="220" />
            </Array>
          </mxGeometry>
        </mxCell>
      </root>
    </mxGraphModel>
  </diagram>
</mxfile>
